<?xml version="1.0" encoding="utf-8" ?>
<svg baseProfile="full" height="332" version="1.1" width="338" xmlns="http://www.w3.org/2000/svg" xmlns:ev="http://www.w3.org/2001/xml-events" xmlns:xlink="http://www.w3.org/1999/xlink"><defs /><polyline fill="none" points="260,22 259,23 257,23 256,24 254,24 253,25 250,25 249,26 246,26 245,27 241,27 240,28 234,28 233,29 227,29 226,30 221,30 220,31 217,31 216,32 214,32 213,33 211,33 210,34 209,34 208,35 206,35 204,37 202,37 200,39 199,39 196,42 195,42 188,49 188,50 185,53 185,54 184,55 184,56 183,57 183,58 182,59 182,60 181,61 181,63 180,64 180,66 179,67 179,71 178,72 178,87 177,88 177,89 176,90 176,91 174,93 174,94 172,96 172,97 171,98 171,99 170,100 170,101 169,102 169,105 168,106 167,106 166,105 166,95 165,94 165,88 164,87 164,83 163,82 163,78 162,77 162,75 161,74 161,70 160,69 160,68 159,67 159,64 158,63 158,62 157,61 157,59 156,58 156,57 155,56 155,55 152,52 150,52 149,51 148,51 147,52 146,52 145,53 145,54 144,55 144,56 150,62 150,63 153,66 153,67 154,68 154,69 155,70 155,71 156,72 156,74 157,75 157,76 158,77 158,79 159,80 159,82 160,83 160,86 161,87 161,90 162,91 162,95 163,96 163,102 164,103 164,105 163,106 162,106 161,105 158,105 157,104 153,104 152,103 150,103 149,102 147,102 146,101 143,101 142,100 140,100 139,99 136,99 135,98 132,98 131,97 126,97 125,96 110,96 109,97 105,97 104,98 102,98 101,99 98,99 97,100 96,100 95,101 93,101 92,102 91,102 90,103 89,103 87,105 86,105 83,108 82,108 71,119 71,120 68,123 68,124 66,126 66,127 65,128 65,129 63,131 63,133 62,134 62,135 61,136 61,137 60,138 60,139 59,140 59,142 58,143 58,145 57,146 57,148 56,149 56,152 55,153 55,160 54,161 54,184 55,185 55,192 56,193 56,198 57,199 57,202 58,203 58,206 59,207 59,210 60,211 60,213 61,214 61,217 62,218 62,219 63,220 63,223 64,224 64,225 65,226 65,228 66,229 66,230 67,231 67,233 68,234 68,235 69,236 69,238 70,239 70,240 71,241 71,242 72,243 72,244 73,245 73,246 74,247 74,248 75,249 75,250 76,251 76,252 77,253 77,254 78,255 78,256 79,257 79,258 81,260 81,261 82,262 82,263 84,265 84,266 85,267 85,268 87,270 87,271 90,274 90,275 94,279 94,280 106,292 107,292 109,294 110,294 112,296 113,296 114,297 115,297 116,298 117,298 118,299 119,299 120,300 122,300 123,301 125,301 126,302 139,302 140,301 143,301 144,300 146,300 147,299 150,299 151,298 152,298 153,297 156,297 157,296 160,296 161,295 172,295 173,296 177,296 178,297 180,297 181,298 183,298 184,299 187,299 188,300 190,300 191,301 194,301 195,302 206,302 207,301 210,301 211,300 213,300 214,299 216,299 218,297 219,297 220,296 221,296 223,294 224,294 226,292 227,292 240,279 240,278 244,274 244,273 246,271 246,270 247,269 247,268 249,266 249,265 251,263 251,262 252,261 252,260 253,259 253,258 254,257 254,256 256,254 256,253 257,252 257,251 258,250 258,249 259,248 259,247 260,246 260,245 261,244 261,242 262,241 262,240 263,239 263,238 264,237 264,236 265,235 265,233 266,232 266,231 267,230 267,228 268,227 268,225 269,224 269,222 270,221 270,219 271,218 271,216 272,215 272,213 273,212 273,209 274,208 274,206 275,205 275,201 276,200 276,197 277,196 277,189 278,188 278,182 279,181 279,163 278,162 278,155 277,154 277,150 276,149 276,147 275,146 275,143 274,142 274,141 273,140 273,138 272,137 272,136 271,135 271,134 270,133 270,131 268,129 268,128 267,127 267,126 265,124 265,123 262,120 262,119 251,108 250,108 248,106 247,106 245,104 244,104 243,103 242,103 240,101 238,101 237,100 236,100 235,99 231,99 230,98 227,98 226,97 207,97 206,98 202,98 201,99 198,99 197,100 194,100 193,101 190,101 189,102 187,102 186,103 183,103 182,104 178,104 177,105 174,105 173,106 172,106 171,105 171,104 172,103 172,102 173,101 173,100 174,99 174,98 175,97 175,96 176,95 176,94 177,93 177,92 178,91 178,90 180,88 185,88 186,89 200,89 201,88 206,88 207,87 209,87 210,86 213,86 214,85 215,85 216,84 217,84 218,83 219,83 220,82 221,82 222,81 223,81 224,80 225,80 227,78 228,78 230,76 231,76 233,74 234,74 243,65 243,64 246,61 246,60 249,57 249,56 251,54 251,53 252,52 252,51 253,50 253,49 254,48 254,47 255,46 255,45 256,44 256,42 257,41 257,39 258,38 258,36 259,35 259,33 260,32 260,29 261,28 261,25 262,24 262,23 261,22" stroke="black" stroke-width="1" /><polyline fill="none" points="108,100 109,99 128,99 129,100 132,100 133,101 136,101 137,102 139,102 140,103 143,103 144,104 146,104 147,105 150,105 151,106 153,106 154,107 158,107 159,108 163,108 164,109 164,119 163,120 157,120 156,119 152,119 151,118 149,118 148,117 146,117 145,116 143,116 142,115 140,115 139,114 138,114 137,113 141,117 142,117 143,118 144,118 145,119 147,119 148,120 149,120 150,121 154,121 155,122 162,122 163,123 168,123 169,122 177,122 178,121 181,121 182,120 184,120 185,119 187,119 189,117 190,117 192,115 193,115 194,114 194,113 192,115 190,115 189,116 188,116 187,117 185,117 184,118 181,118 180,119 177,119 176,120 167,120 166,119 167,118 167,115 168,114 168,111 169,110 169,109 170,108 175,108 176,107 181,107 182,106 184,106 185,105 188,105 189,104 191,104 192,103 196,103 197,102 199,102 200,101 203,101 204,100 210,100 211,99 219,99 220,100 227,100 228,101 231,101 232,102 234,102 235,103 236,103 237,104 238,104 239,105 241,105 243,107 244,107 245,108 246,108 249,111 250,111 262,123 262,124 264,126 264,127 266,129 266,130 267,131 267,132 268,133 268,134 269,135 269,136 270,137 270,138 271,139 271,141 272,142 272,144 273,145 273,147 274,148 274,151 275,152 275,156 276,157 276,185 275,186 275,192 274,193 274,197 273,198 273,202 272,203 272,206 271,207 271,211 270,212 270,213 269,214 269,217 268,218 268,220 267,221 267,222 266,223 266,225 265,226 265,228 264,229 264,231 263,232 263,233 262,234 262,235 261,236 261,238 260,239 260,240 259,241 259,242 258,243 258,244 257,245 257,246 256,247 256,248 255,249 255,250 254,251 254,252 253,253 253,254 252,255 252,256 250,258 250,259 249,260 249,261 247,263 247,264 245,266 245,267 243,269 243,270 241,272 241,273 238,276 238,277 224,291 223,291 221,293 220,293 218,295 216,295 215,296 214,296 213,297 212,297 211,298 208,298 207,299 194,299 193,298 190,298 189,297 187,297 186,296 184,296 183,295 180,295 179,294 177,294 176,293 158,293 157,294 154,294 153,295 151,295 150,296 148,296 147,297 145,297 144,298 141,298 140,299 136,299 135,300 129,300 128,299 125,299 124,298 121,298 120,297 119,297 118,296 117,296 116,295 115,295 113,293 112,293 109,290 108,290 94,276 94,275 91,272 91,271 89,269 89,268 87,266 87,265 85,263 85,262 83,260 83,259 82,258 82,257 81,256 81,255 80,254 80,253 78,251 78,249 76,247 76,246 75,245 75,244 74,243 74,242 73,241 73,239 72,238 72,237 71,236 71,235 70,234 70,232 69,231 69,230 68,229 68,227 67,226 67,225 66,224 66,222 65,221 65,219 64,218 64,215 63,214 63,213 62,212 62,209 61,208 61,205 60,204 60,202 59,201 59,196 58,195 58,190 57,189 57,180 56,179 56,164 57,163 57,155 58,154 58,151 59,150 59,148 60,147 60,146 61,145 61,143 62,142 62,140 63,139 63,138 64,137 64,135 65,134 65,133 66,132 66,131 67,130 67,129 69,127 69,126 71,124 71,123 74,120 74,119 81,112 82,112 84,110 85,110 88,107 89,107 90,106 91,106 92,105 93,105 94,104 95,104 96,103 98,103 99,102 100,102 101,101 103,101 104,100" stroke="black" stroke-width="1" /><polyline fill="none" points="107,268 108,269 108,270 110,272 110,273 116,279 117,279 119,281 118,280 118,279 117,279 116,278 116,277 115,277 112,274 112,273" stroke="black" stroke-width="1" /><polyline fill="none" points="228,266 227,267 227,268 225,270 225,271 222,274 222,275 220,277 226,271 226,270 227,269 227,268 228,267" stroke="black" stroke-width="1" /><polyline fill="none" points="225,248 224,249 224,250 223,251 223,252 221,254 221,255 219,257 219,258 217,260 217,261 215,263 220,258 220,257 222,255 222,254 224,252 224,251 225,250" stroke="black" stroke-width="1" /><polyline fill="none" points="85,223 86,224 86,226 87,227 87,228 88,229 88,230 89,231 89,232 90,233 90,234 92,236 92,237 94,239 94,240 98,244 98,243 95,240 95,239 93,237 93,236 91,234 91,233 90,232 90,231 88,229 88,228 87,227 87,226 86,225 86,224" stroke="black" stroke-width="1" /><polyline fill="none" points="250,218 250,220 249,221 249,222 248,223 248,225 247,226 247,227 246,228 246,229 245,230 245,232 243,234 243,236 242,237 242,238 241,239 241,240 240,241 240,242 239,243 239,244 238,245 238,246 237,247 237,248 236,249 237,248 237,247 239,245 239,244 240,243 240,242 241,241 241,240 242,239 242,238 243,237 243,236 244,235 244,234 245,233 245,232 246,231 246,230 247,229 247,227 248,226 248,225 249,224 249,221 250,220" stroke="black" stroke-width="1" /><polyline fill="none" points="91,200 91,201 92,202 92,204 93,205 93,207 94,208 94,209 95,210 95,211 97,213 97,214 99,216 98,215 98,214 97,213 97,212 95,210 95,208 94,207 94,206 93,205 93,204 92,203 92,201" stroke="black" stroke-width="1" /><polyline fill="none" points="73,172 73,183 74,184 74,189 75,190 75,193 76,194 76,195 77,196 77,197 77,196 76,195 76,191 75,190 75,186 74,185 74,176 73,175" stroke="black" stroke-width="1" /><polyline fill="none" points="257,159 257,161 258,162 258,173 259,174 258,175 258,185 257,186 257,188 257,187 258,186 258,182 259,181 259,166 258,165 258,161 257,160" stroke="black" stroke-width="1" /><polyline fill="none" points="231,136 233,138 233,139 237,143 237,144 238,145 238,144 237,143 237,142" stroke="black" stroke-width="1" /><polyline fill="none" points="235,121 236,122 237,122 241,126 242,126 243,127 243,128 247,132 247,133 249,135 249,136 251,138 250,137 250,136 249,135 249,134 248,133 248,132 246,130 246,129 241,124 240,124 238,122 237,122 236,121" stroke="black" stroke-width="1" /><polyline fill="none" points="109,118 108,119 107,119 106,120 105,120 104,121 103,121 98,126 98,127 97,128 104,121 105,121 107,119 108,119" stroke="black" stroke-width="1" /><polyline fill="none" points="97,114 96,115 95,115 94,116 93,116 89,120 88,120 85,123 85,124 82,127 82,128 81,129 81,131 80,132 80,134 80,132 81,131 81,130 82,129 82,128 84,126 84,125 91,118 92,118 94,116 95,116 97,114 98,114" stroke="black" stroke-width="1" /><polyline fill="none" points="160,79 161,78 162,79 162,80 161,81 160,80" stroke="black" stroke-width="1" /><polyline fill="none" points="159,76 160,75 161,76 161,78 160,79 159,78" stroke="black" stroke-width="1" /><polyline fill="none" points="147,56 148,55 151,55 154,58 154,59 155,60 155,61 156,62 156,63 157,64 157,65 158,66 158,68 159,69 159,71 160,72 160,74 159,75 158,74 158,73 157,72 157,70 156,69 156,67 154,65 154,64 153,63 153,62 151,60 151,59 150,58 149,58" stroke="black" stroke-width="1" /><polyline fill="none" points="255,27 256,26 257,26 258,27 258,28 257,29 257,31 256,32 256,34 255,35 255,37 254,38 254,40 253,41 253,43 252,44 252,46 251,47 251,48 250,49 250,50 249,51 249,52 247,54 247,55 245,57 245,58 242,61 242,62 232,72 231,72 229,74 228,74 226,76 225,76 223,78 222,78 221,79 220,79 219,80 218,80 217,81 216,81 215,82 213,82 212,83 211,83 210,84 207,84 206,85 202,85 201,86 198,86 197,87 189,87 188,86 184,86 183,85 183,84 186,81 186,80 192,74 194,74 195,75 198,75 199,76 214,76 211,76 210,75 197,75 196,74 194,74 193,73 194,72 195,72 199,68 200,68 203,65 204,65 206,63 207,64 218,64 219,63 222,63 223,62 226,62 227,61 228,61 229,60 230,60 231,59 232,59 230,59 229,60 227,60 226,61 224,61 223,62 220,62 219,63 214,63 213,64 208,64 207,63 208,62 209,62 211,60 212,60 214,58 215,58 216,57 217,57 219,55 220,55 221,54 222,54 224,52 225,52 226,51 227,51 229,49 230,49 232,47 233,47 235,45 236,45 238,43 239,43 241,41 242,41 246,37 247,37 248,36 247,36 245,38 244,38 242,40 241,40 239,42 238,42 236,44 235,44 234,45 233,45 231,47 230,47 228,49 227,49 226,50 225,50 223,52 222,52 220,54 219,54 218,55 217,55 215,57 214,57 213,58 212,57 212,56 213,55 213,52 214,51 214,50 215,49 215,47 215,48 213,50 213,52 212,53 212,58 210,60 209,60 208,61 207,61 205,63 204,63 201,66 200,66 197,69 196,69 194,71 193,70 193,69 194,68 194,61 195,60 195,58 196,57 196,56 195,57 195,58 194,59 194,61 193,62 193,70 194,71 192,73 191,73 186,78 186,79 180,85 179,84 179,77 180,76 180,70 181,69 181,66 182,65 182,63 183,62 183,61 184,60 184,59 185,58 185,57 187,55 187,54 190,51 190,50 197,43 198,43 200,41 201,41 203,39 204,39 205,38 206,38 207,37 208,37 209,36 211,36 212,35 213,35 214,34 218,34 219,33 222,33 223,32 229,32 230,31 236,31 237,30 242,30 243,29 248,29 249,28 252,28 253,27" stroke="black" stroke-width="1" /></svg>